<svg id="visual" viewBox="0 0 1920 1080" width="1920" height="1080" xmlns="http://www.w3.org/2000/svg" xmlns:xlink="http://www.w3.org/1999/xlink" version="1.1"><g><g transform="translate(1434 589)"><path d="M0 -288.1L249.5 -144L249.5 144L0 288.1L-249.5 144L-249.5 -144Z" fill="#297EA6"></path></g><g transform="translate(596 177)"><path d="M0 -151L130.8 -75.5L130.8 75.5L0 151L-130.8 75.5L-130.8 -75.5Z" fill="#297EA6"></path></g><g transform="translate(27 479)"><path d="M0 -172L149 -86L149 86L0 172L-149 86L-149 -86Z" fill="#297EA6"></path></g><g transform="translate(864 1024)"><path d="M0 -287L248.5 -143.5L248.5 143.5L0 287L-248.5 143.5L-248.5 -143.5Z" fill="#297EA670"></path></g><g transform="translate(1695 6)"><path d="M0 -224L194 -112L194 112L0 224L-194 112L-194 -112Z" fill="#297EA660"></path></g><g transform="translate(1905 982)"><path d="M0 -191L165.4 -95.5L165.4 95.5L0 191L-165.4 95.5L-165.4 -95.5Z" fill="#297EA660"></path></g><g transform="translate(246 1066)"><path d="M0 -147L127.3 -73.5L127.3 73.5L0 147L-127.3 73.5L-127.3 -73.5Z" fill="#297EA650"></path></g></g></svg>