<svg id="visual" viewBox="0 0 1920 1080" width="1920" height="1080" xmlns="http://www.w3.org/2000/svg" xmlns:xlink="http://www.w3.org/1999/xlink" version="1.1"><path d="M0 656L113 603L226 758L339 837L452 904L565 837L678 744L791 644L904 882L1016 836L1129 740L1242 746L1355 599L1468 689L1581 684L1694 742L1807 926L1920 669L1920 1081L1807 1081L1694 1081L1581 1081L1468 1081L1355 1081L1242 1081L1129 1081L1016 1081L904 1081L791 1081L678 1081L565 1081L452 1081L339 1081L226 1081L113 1081L0 1081Z" fill="#4facf7"></path><path d="M0 774L113 757L226 915L339 683L452 782L565 678L678 711L791 948L904 954L1016 772L1129 942L1242 812L1355 688L1468 894L1581 891L1694 751L1807 788L1920 683L1920 1081L1807 1081L1694 1081L1581 1081L1468 1081L1355 1081L1242 1081L1129 1081L1016 1081L904 1081L791 1081L678 1081L565 1081L452 1081L339 1081L226 1081L113 1081L0 1081Z" fill="#4292d2"></path><path d="M0 867L113 907L226 846L339 869L452 891L565 852L678 836L791 976L904 840L1016 895L1129 814L1242 837L1355 847L1468 761L1581 983L1694 968L1807 807L1920 957L1920 1081L1807 1081L1694 1081L1581 1081L1468 1081L1355 1081L1242 1081L1129 1081L1016 1081L904 1081L791 1081L678 1081L565 1081L452 1081L339 1081L226 1081L113 1081L0 1081Z" fill="#3579af"></path><path d="M0 913L113 918L226 941L339 901L452 967L565 958L678 957L791 1020L904 945L1016 932L1129 1020L1242 881L1355 866L1468 845L1581 839L1694 869L1807 1003L1920 863L1920 1081L1807 1081L1694 1081L1581 1081L1468 1081L1355 1081L1242 1081L1129 1081L1016 1081L904 1081L791 1081L678 1081L565 1081L452 1081L339 1081L226 1081L113 1081L0 1081Z" fill="#29608d"></path><path d="M0 956L113 950L226 946L339 998L452 921L565 924L678 968L791 1044L904 926L1016 1003L1129 930L1242 1006L1355 1035L1468 1031L1581 923L1694 975L1807 940L1920 970L1920 1081L1807 1081L1694 1081L1581 1081L1468 1081L1355 1081L1242 1081L1129 1081L1016 1081L904 1081L791 1081L678 1081L565 1081L452 1081L339 1081L226 1081L113 1081L0 1081Z" fill="#1d496d"></path></svg>