<svg id="visual" viewBox="0 0 1920 1080" width="1920" height="1080" xmlns="http://www.w3.org/2000/svg" xmlns:xlink="http://www.w3.org/1999/xlink" version="1.1"><path d="M0 771L45.7 769C91.3 767 182.7 763 274.2 753.7C365.7 744.3 457.3 729.7 548.8 728.5C640.3 727.3 731.7 739.7 823 731.7C914.3 723.7 1005.7 695.3 1097 680.7C1188.3 666 1279.7 665 1371.2 684.3C1462.7 703.7 1554.3 743.3 1645.8 755.7C1737.3 768 1828.7 753 1874.3 745.5L1920 738L1920 1081L1874.3 1081C1828.7 1081 1737.3 1081 1645.8 1081C1554.3 1081 1462.7 1081 1371.2 1081C1279.7 1081 1188.3 1081 1097 1081C1005.7 1081 914.3 1081 823 1081C731.7 1081 640.3 1081 548.8 1081C457.3 1081 365.7 1081 274.2 1081C182.7 1081 91.3 1081 45.7 1081L0 1081Z" fill="#4facf7"></path><path d="M0 794L45.7 783.2C91.3 772.3 182.7 750.7 274.2 738.2C365.7 725.7 457.3 722.3 548.8 732.2C640.3 742 731.7 765 823 780.5C914.3 796 1005.7 804 1097 803.8C1188.3 803.7 1279.7 795.3 1371.2 802.7C1462.7 810 1554.3 833 1645.8 824.2C1737.3 815.3 1828.7 774.7 1874.3 754.3L1920 734L1920 1081L1874.3 1081C1828.7 1081 1737.3 1081 1645.8 1081C1554.3 1081 1462.7 1081 1371.2 1081C1279.7 1081 1188.3 1081 1097 1081C1005.7 1081 914.3 1081 823 1081C731.7 1081 640.3 1081 548.8 1081C457.3 1081 365.7 1081 274.2 1081C182.7 1081 91.3 1081 45.7 1081L0 1081Z" fill="#439ae3"></path><path d="M0 916L45.7 896.8C91.3 877.7 182.7 839.3 274.2 838.3C365.7 837.3 457.3 873.7 548.8 885C640.3 896.3 731.7 882.7 823 882.5C914.3 882.3 1005.7 895.7 1097 894.5C1188.3 893.3 1279.7 877.7 1371.2 857.5C1462.7 837.3 1554.3 812.7 1645.8 817.5C1737.3 822.3 1828.7 856.7 1874.3 873.8L1920 891L1920 1081L1874.3 1081C1828.7 1081 1737.3 1081 1645.8 1081C1554.3 1081 1462.7 1081 1371.2 1081C1279.7 1081 1188.3 1081 1097 1081C1005.7 1081 914.3 1081 823 1081C731.7 1081 640.3 1081 548.8 1081C457.3 1081 365.7 1081 274.2 1081C182.7 1081 91.3 1081 45.7 1081L0 1081Z" fill="#3689cf"></path><path d="M0 960L45.7 951.8C91.3 943.7 182.7 927.3 274.2 917.2C365.7 907 457.3 903 548.8 896C640.3 889 731.7 879 823 883.3C914.3 887.7 1005.7 906.3 1097 910.8C1188.3 915.3 1279.7 905.7 1371.2 899.2C1462.7 892.7 1554.3 889.3 1645.8 898.7C1737.3 908 1828.7 930 1874.3 941L1920 952L1920 1081L1874.3 1081C1828.7 1081 1737.3 1081 1645.8 1081C1554.3 1081 1462.7 1081 1371.2 1081C1279.7 1081 1188.3 1081 1097 1081C1005.7 1081 914.3 1081 823 1081C731.7 1081 640.3 1081 548.8 1081C457.3 1081 365.7 1081 274.2 1081C182.7 1081 91.3 1081 45.7 1081L0 1081Z" fill="#2878bb"></path><path d="M0 1015L45.7 1008.8C91.3 1002.7 182.7 990.3 274.2 991.3C365.7 992.3 457.3 1006.7 548.8 1002.5C640.3 998.3 731.7 975.7 823 969C914.3 962.3 1005.7 971.7 1097 975.5C1188.3 979.3 1279.7 977.7 1371.2 975.7C1462.7 973.7 1554.3 971.3 1645.8 969C1737.3 966.7 1828.7 964.3 1874.3 963.2L1920 962L1920 1081L1874.3 1081C1828.7 1081 1737.3 1081 1645.8 1081C1554.3 1081 1462.7 1081 1371.2 1081C1279.7 1081 1188.3 1081 1097 1081C1005.7 1081 914.3 1081 823 1081C731.7 1081 640.3 1081 548.8 1081C457.3 1081 365.7 1081 274.2 1081C182.7 1081 91.3 1081 45.7 1081L0 1081Z" fill="#1967a8"></path></svg>